<mxfile host="Electron" agent="Mozilla/5.0 (Windows NT 10.0; Win64; x64) AppleWebKit/537.36 (KHTML, like Gecko) draw.io/27.0.5 Chrome/134.0.6998.205 Electron/35.3.0 Safari/537.36" version="27.0.5">
  <diagram name="Pagina-1" id="90X5Uam4fPPWHdMIf9Um">
    <mxGraphModel dx="2458" dy="1324" grid="1" gridSize="10" guides="1" tooltips="1" connect="1" arrows="1" fold="1" page="1" pageScale="1" pageWidth="1169" pageHeight="1654" math="0" shadow="0">
      <root>
        <mxCell id="0" />
        <mxCell id="1" parent="0" />
        <mxCell id="idGQ35asmsZKRSU0V28K-1" value="&lt;font style=&quot;font-size: 18px;&quot;&gt;Artefatto&lt;/font&gt;" style="whiteSpace=wrap;html=1;align=center;" vertex="1" parent="1">
          <mxGeometry x="-1005" y="90" width="110" height="50" as="geometry" />
        </mxCell>
        <mxCell id="idGQ35asmsZKRSU0V28K-2" value="" style="endArrow=none;html=1;rounded=0;entryX=0.5;entryY=1;entryDx=0;entryDy=0;entryPerimeter=0;" edge="1" parent="1" source="idGQ35asmsZKRSU0V28K-11">
          <mxGeometry width="50" height="50" relative="1" as="geometry">
            <mxPoint x="-1002.5" y="90" as="sourcePoint" />
            <mxPoint x="-1002.5" y="70" as="targetPoint" />
          </mxGeometry>
        </mxCell>
        <mxCell id="idGQ35asmsZKRSU0V28K-3" value="&lt;font style=&quot;font-size: 18px;&quot;&gt;Cod&lt;/font&gt;" style="text;html=1;align=center;verticalAlign=middle;whiteSpace=wrap;rounded=0;" vertex="1" parent="1">
          <mxGeometry x="-1035" y="40" width="45" height="10" as="geometry" />
        </mxCell>
        <mxCell id="idGQ35asmsZKRSU0V28K-4" value="" style="verticalLabelPosition=bottom;verticalAlign=top;html=1;shape=mxgraph.flowchart.on-page_reference;" vertex="1" parent="1">
          <mxGeometry x="-980" y="60" width="10" height="10" as="geometry" />
        </mxCell>
        <mxCell id="idGQ35asmsZKRSU0V28K-5" value="" style="endArrow=none;html=1;rounded=0;entryX=0.5;entryY=1;entryDx=0;entryDy=0;entryPerimeter=0;" edge="1" parent="1" target="idGQ35asmsZKRSU0V28K-4">
          <mxGeometry width="50" height="50" relative="1" as="geometry">
            <mxPoint x="-975" y="90" as="sourcePoint" />
            <mxPoint x="-930" y="70" as="targetPoint" />
          </mxGeometry>
        </mxCell>
        <mxCell id="idGQ35asmsZKRSU0V28K-6" value="&lt;font style=&quot;font-size: 18px;&quot;&gt;Nome&lt;/font&gt;" style="text;html=1;align=center;verticalAlign=middle;whiteSpace=wrap;rounded=0;" vertex="1" parent="1">
          <mxGeometry x="-980" y="40" width="45" height="10" as="geometry" />
        </mxCell>
        <mxCell id="idGQ35asmsZKRSU0V28K-7" value="" style="verticalLabelPosition=bottom;verticalAlign=top;html=1;shape=mxgraph.flowchart.on-page_reference;" vertex="1" parent="1">
          <mxGeometry x="-925" y="60" width="10" height="10" as="geometry" />
        </mxCell>
        <mxCell id="idGQ35asmsZKRSU0V28K-8" value="" style="endArrow=none;html=1;rounded=0;entryX=0.5;entryY=1;entryDx=0;entryDy=0;entryPerimeter=0;" edge="1" parent="1" target="idGQ35asmsZKRSU0V28K-7">
          <mxGeometry width="50" height="50" relative="1" as="geometry">
            <mxPoint x="-920" y="90" as="sourcePoint" />
            <mxPoint x="-875" y="70" as="targetPoint" />
          </mxGeometry>
        </mxCell>
        <mxCell id="idGQ35asmsZKRSU0V28K-9" value="&lt;font style=&quot;font-size: 18px;&quot;&gt;Anno&lt;/font&gt;" style="text;html=1;align=center;verticalAlign=middle;whiteSpace=wrap;rounded=0;" vertex="1" parent="1">
          <mxGeometry x="-925" y="40" width="45" height="10" as="geometry" />
        </mxCell>
        <mxCell id="idGQ35asmsZKRSU0V28K-10" value="" style="endArrow=none;html=1;rounded=0;entryX=0.5;entryY=1;entryDx=0;entryDy=0;entryPerimeter=0;" edge="1" parent="1" target="idGQ35asmsZKRSU0V28K-11">
          <mxGeometry width="50" height="50" relative="1" as="geometry">
            <mxPoint x="-1002.5" y="90" as="sourcePoint" />
            <mxPoint x="-1002.5" y="70" as="targetPoint" />
          </mxGeometry>
        </mxCell>
        <mxCell id="idGQ35asmsZKRSU0V28K-11" value="" style="verticalLabelPosition=bottom;verticalAlign=top;html=1;shape=mxgraph.flowchart.on-page_reference;fillColor=#000000;" vertex="1" parent="1">
          <mxGeometry x="-1007.5" y="60" width="10" height="10" as="geometry" />
        </mxCell>
        <mxCell id="idGQ35asmsZKRSU0V28K-12" value="&lt;font style=&quot;font-size: 18px;&quot;&gt;Artista&lt;/font&gt;" style="whiteSpace=wrap;html=1;align=center;" vertex="1" parent="1">
          <mxGeometry x="-595" y="90" width="110" height="50" as="geometry" />
        </mxCell>
        <mxCell id="idGQ35asmsZKRSU0V28K-13" value="" style="endArrow=none;html=1;rounded=0;entryX=0.5;entryY=1;entryDx=0;entryDy=0;entryPerimeter=0;" edge="1" parent="1" source="idGQ35asmsZKRSU0V28K-22">
          <mxGeometry width="50" height="50" relative="1" as="geometry">
            <mxPoint x="-592.5" y="90" as="sourcePoint" />
            <mxPoint x="-592.5" y="70" as="targetPoint" />
          </mxGeometry>
        </mxCell>
        <mxCell id="idGQ35asmsZKRSU0V28K-14" value="&lt;font style=&quot;font-size: 18px;&quot;&gt;Nome&lt;/font&gt;" style="text;html=1;align=center;verticalAlign=middle;whiteSpace=wrap;rounded=0;" vertex="1" parent="1">
          <mxGeometry x="-615" y="40" width="45" height="10" as="geometry" />
        </mxCell>
        <mxCell id="idGQ35asmsZKRSU0V28K-15" value="" style="verticalLabelPosition=bottom;verticalAlign=top;html=1;shape=mxgraph.flowchart.on-page_reference;" vertex="1" parent="1">
          <mxGeometry x="-555" y="60" width="10" height="10" as="geometry" />
        </mxCell>
        <mxCell id="idGQ35asmsZKRSU0V28K-16" value="" style="endArrow=none;html=1;rounded=0;entryX=0.5;entryY=1;entryDx=0;entryDy=0;entryPerimeter=0;" edge="1" parent="1" target="idGQ35asmsZKRSU0V28K-15">
          <mxGeometry width="50" height="50" relative="1" as="geometry">
            <mxPoint x="-550" y="90" as="sourcePoint" />
            <mxPoint x="-505" y="70" as="targetPoint" />
          </mxGeometry>
        </mxCell>
        <mxCell id="idGQ35asmsZKRSU0V28K-17" value="&lt;font style=&quot;font-size: 18px;&quot;&gt;Cogn&lt;/font&gt;" style="text;html=1;align=center;verticalAlign=middle;whiteSpace=wrap;rounded=0;" vertex="1" parent="1">
          <mxGeometry x="-562.5" y="40" width="45" height="10" as="geometry" />
        </mxCell>
        <mxCell id="idGQ35asmsZKRSU0V28K-18" value="" style="verticalLabelPosition=bottom;verticalAlign=top;html=1;shape=mxgraph.flowchart.on-page_reference;" vertex="1" parent="1">
          <mxGeometry x="-500" y="60" width="10" height="10" as="geometry" />
        </mxCell>
        <mxCell id="idGQ35asmsZKRSU0V28K-19" value="" style="endArrow=none;html=1;rounded=0;entryX=0.5;entryY=1;entryDx=0;entryDy=0;entryPerimeter=0;" edge="1" parent="1" target="idGQ35asmsZKRSU0V28K-18">
          <mxGeometry width="50" height="50" relative="1" as="geometry">
            <mxPoint x="-495" y="90" as="sourcePoint" />
            <mxPoint x="-450" y="70" as="targetPoint" />
          </mxGeometry>
        </mxCell>
        <mxCell id="idGQ35asmsZKRSU0V28K-20" value="&lt;font style=&quot;font-size: 18px;&quot;&gt;DN&lt;/font&gt;" style="text;html=1;align=center;verticalAlign=middle;whiteSpace=wrap;rounded=0;" vertex="1" parent="1">
          <mxGeometry x="-517.5" y="40" width="45" height="10" as="geometry" />
        </mxCell>
        <mxCell id="idGQ35asmsZKRSU0V28K-21" value="" style="endArrow=none;html=1;rounded=0;entryX=0.5;entryY=1;entryDx=0;entryDy=0;entryPerimeter=0;" edge="1" parent="1" target="idGQ35asmsZKRSU0V28K-22">
          <mxGeometry width="50" height="50" relative="1" as="geometry">
            <mxPoint x="-592.5" y="90" as="sourcePoint" />
            <mxPoint x="-592.5" y="70" as="targetPoint" />
          </mxGeometry>
        </mxCell>
        <mxCell id="idGQ35asmsZKRSU0V28K-22" value="" style="verticalLabelPosition=bottom;verticalAlign=top;html=1;shape=mxgraph.flowchart.on-page_reference;fillColor=#FFFFFF;" vertex="1" parent="1">
          <mxGeometry x="-597.5" y="60" width="10" height="10" as="geometry" />
        </mxCell>
        <mxCell id="idGQ35asmsZKRSU0V28K-23" value="" style="endArrow=none;html=1;rounded=0;exitX=1;exitY=0.5;exitDx=0;exitDy=0;" edge="1" parent="1" source="idGQ35asmsZKRSU0V28K-26">
          <mxGeometry width="50" height="50" relative="1" as="geometry">
            <mxPoint x="-432.5" y="120" as="sourcePoint" />
            <mxPoint x="-455" y="115" as="targetPoint" />
          </mxGeometry>
        </mxCell>
        <mxCell id="idGQ35asmsZKRSU0V28K-24" value="&lt;font style=&quot;font-size: 18px;&quot;&gt;DM&lt;/font&gt;" style="text;html=1;align=center;verticalAlign=middle;whiteSpace=wrap;rounded=0;" vertex="1" parent="1">
          <mxGeometry x="-445" y="110" width="40" height="10" as="geometry" />
        </mxCell>
        <mxCell id="idGQ35asmsZKRSU0V28K-25" value="" style="endArrow=none;html=1;rounded=0;exitX=1;exitY=0.5;exitDx=0;exitDy=0;" edge="1" parent="1" source="idGQ35asmsZKRSU0V28K-12" target="idGQ35asmsZKRSU0V28K-26">
          <mxGeometry width="50" height="50" relative="1" as="geometry">
            <mxPoint x="-485" y="115" as="sourcePoint" />
            <mxPoint x="-455" y="115" as="targetPoint" />
          </mxGeometry>
        </mxCell>
        <mxCell id="idGQ35asmsZKRSU0V28K-26" value="" style="verticalLabelPosition=bottom;verticalAlign=top;html=1;shape=mxgraph.flowchart.on-page_reference;" vertex="1" parent="1">
          <mxGeometry x="-455" y="110" width="10" height="10" as="geometry" />
        </mxCell>
        <mxCell id="idGQ35asmsZKRSU0V28K-27" value="" style="endArrow=none;html=1;rounded=0;" edge="1" parent="1">
          <mxGeometry width="50" height="50" relative="1" as="geometry">
            <mxPoint x="-606.25" y="74.58" as="sourcePoint" />
            <mxPoint x="-473.75" y="74.58" as="targetPoint" />
          </mxGeometry>
        </mxCell>
        <mxCell id="idGQ35asmsZKRSU0V28K-28" value="" style="verticalLabelPosition=bottom;verticalAlign=top;html=1;shape=mxgraph.flowchart.on-page_reference;fillColor=#000000;" vertex="1" parent="1">
          <mxGeometry x="-615" y="70" width="10" height="10" as="geometry" />
        </mxCell>
        <mxCell id="idGQ35asmsZKRSU0V28K-29" value="" style="endArrow=none;html=1;rounded=0;entryX=0;entryY=0.5;entryDx=0;entryDy=0;" edge="1" parent="1" target="idGQ35asmsZKRSU0V28K-31">
          <mxGeometry width="50" height="50" relative="1" as="geometry">
            <mxPoint x="-895" y="120" as="sourcePoint" />
            <mxPoint x="-805" y="120" as="targetPoint" />
          </mxGeometry>
        </mxCell>
        <mxCell id="idGQ35asmsZKRSU0V28K-30" value="" style="endArrow=none;html=1;rounded=0;exitX=1;exitY=0.5;exitDx=0;exitDy=0;" edge="1" parent="1" source="idGQ35asmsZKRSU0V28K-31">
          <mxGeometry width="50" height="50" relative="1" as="geometry">
            <mxPoint x="-685" y="119" as="sourcePoint" />
            <mxPoint x="-595" y="119.16999999999999" as="targetPoint" />
          </mxGeometry>
        </mxCell>
        <mxCell id="idGQ35asmsZKRSU0V28K-31" value="&lt;font style=&quot;font-size: 18px;&quot;&gt;creazione&lt;/font&gt;" style="shape=rhombus;perimeter=rhombusPerimeter;whiteSpace=wrap;html=1;align=center;" vertex="1" parent="1">
          <mxGeometry x="-805" y="90" width="120" height="60" as="geometry" />
        </mxCell>
        <mxCell id="idGQ35asmsZKRSU0V28K-36" value="&lt;font style=&quot;font-size: 18px;&quot;&gt;(0,N)&lt;/font&gt;" style="text;html=1;align=center;verticalAlign=middle;whiteSpace=wrap;rounded=0;" vertex="1" parent="1">
          <mxGeometry x="-885" y="100" width="40" height="20" as="geometry" />
        </mxCell>
        <mxCell id="idGQ35asmsZKRSU0V28K-37" value="&lt;font style=&quot;font-size: 18px;&quot;&gt;(0,N)&lt;/font&gt;" style="text;html=1;align=center;verticalAlign=middle;whiteSpace=wrap;rounded=0;" vertex="1" parent="1">
          <mxGeometry x="-645" y="100" width="40" height="20" as="geometry" />
        </mxCell>
        <mxCell id="idGQ35asmsZKRSU0V28K-38" value="&lt;span style=&quot;font-size: 18px;&quot;&gt;Area&lt;/span&gt;" style="whiteSpace=wrap;html=1;align=center;" vertex="1" parent="1">
          <mxGeometry x="-1137.5" y="360" width="110" height="50" as="geometry" />
        </mxCell>
        <mxCell id="idGQ35asmsZKRSU0V28K-39" value="" style="endArrow=none;html=1;rounded=0;entryX=0.5;entryY=1;entryDx=0;entryDy=0;entryPerimeter=0;" edge="1" parent="1" source="idGQ35asmsZKRSU0V28K-42">
          <mxGeometry width="50" height="50" relative="1" as="geometry">
            <mxPoint x="-1117.5" y="360" as="sourcePoint" />
            <mxPoint x="-1117.5" y="340" as="targetPoint" />
          </mxGeometry>
        </mxCell>
        <mxCell id="idGQ35asmsZKRSU0V28K-40" value="&lt;span style=&quot;font-size: 18px;&quot;&gt;Nome&lt;/span&gt;" style="text;html=1;align=center;verticalAlign=middle;whiteSpace=wrap;rounded=0;" vertex="1" parent="1">
          <mxGeometry x="-1140" y="310" width="45" height="10" as="geometry" />
        </mxCell>
        <mxCell id="idGQ35asmsZKRSU0V28K-41" value="" style="endArrow=none;html=1;rounded=0;entryX=0.5;entryY=1;entryDx=0;entryDy=0;entryPerimeter=0;" edge="1" parent="1" target="idGQ35asmsZKRSU0V28K-42">
          <mxGeometry width="50" height="50" relative="1" as="geometry">
            <mxPoint x="-1117.5" y="360" as="sourcePoint" />
            <mxPoint x="-1117.5" y="340" as="targetPoint" />
          </mxGeometry>
        </mxCell>
        <mxCell id="idGQ35asmsZKRSU0V28K-42" value="" style="verticalLabelPosition=bottom;verticalAlign=top;html=1;shape=mxgraph.flowchart.on-page_reference;fillColor=#000000;" vertex="1" parent="1">
          <mxGeometry x="-1122.5" y="330" width="10" height="10" as="geometry" />
        </mxCell>
        <mxCell id="idGQ35asmsZKRSU0V28K-43" value="&lt;span style=&quot;font-size: 18px;&quot;&gt;Esposizione&lt;/span&gt;" style="whiteSpace=wrap;html=1;align=center;" vertex="1" parent="1">
          <mxGeometry x="-707.5" y="360" width="110" height="50" as="geometry" />
        </mxCell>
        <mxCell id="idGQ35asmsZKRSU0V28K-44" value="" style="endArrow=none;html=1;rounded=0;entryX=0;entryY=0.5;entryDx=0;entryDy=0;exitX=1.024;exitY=0.407;exitDx=0;exitDy=0;exitPerimeter=0;" edge="1" parent="1" source="idGQ35asmsZKRSU0V28K-38" target="idGQ35asmsZKRSU0V28K-46">
          <mxGeometry width="50" height="50" relative="1" as="geometry">
            <mxPoint x="-1032.5" y="380" as="sourcePoint" />
            <mxPoint x="-942.5" y="380" as="targetPoint" />
          </mxGeometry>
        </mxCell>
        <mxCell id="idGQ35asmsZKRSU0V28K-45" value="" style="endArrow=none;html=1;rounded=0;exitX=1;exitY=0.5;exitDx=0;exitDy=0;entryX=0.009;entryY=0.39;entryDx=0;entryDy=0;entryPerimeter=0;" edge="1" parent="1" target="idGQ35asmsZKRSU0V28K-43">
          <mxGeometry width="50" height="50" relative="1" as="geometry">
            <mxPoint x="-852.5" y="380" as="sourcePoint" />
            <mxPoint x="-733.5" y="379.1700000000001" as="targetPoint" />
          </mxGeometry>
        </mxCell>
        <mxCell id="idGQ35asmsZKRSU0V28K-46" value="&lt;span style=&quot;font-size: 18px;&quot;&gt;ubicazione&lt;/span&gt;" style="shape=rhombus;perimeter=rhombusPerimeter;whiteSpace=wrap;html=1;align=center;" vertex="1" parent="1">
          <mxGeometry x="-972.5" y="350" width="162.5" height="60" as="geometry" />
        </mxCell>
        <mxCell id="idGQ35asmsZKRSU0V28K-47" value="&lt;font style=&quot;font-size: 18px;&quot;&gt;(0,1)&lt;/font&gt;" style="text;html=1;align=center;verticalAlign=middle;whiteSpace=wrap;rounded=0;" vertex="1" parent="1">
          <mxGeometry x="-1017.5" y="360" width="35" height="20" as="geometry" />
        </mxCell>
        <mxCell id="idGQ35asmsZKRSU0V28K-48" value="&lt;font style=&quot;font-size: 18px;&quot;&gt;(1,1)&lt;/font&gt;" style="text;html=1;align=center;verticalAlign=middle;whiteSpace=wrap;rounded=0;" vertex="1" parent="1">
          <mxGeometry x="-783.5" y="360" width="40" height="20" as="geometry" />
        </mxCell>
        <mxCell id="idGQ35asmsZKRSU0V28K-49" value="" style="verticalLabelPosition=bottom;verticalAlign=top;html=1;shape=mxgraph.flowchart.on-page_reference;" vertex="1" parent="1">
          <mxGeometry x="-705" y="330" width="10" height="10" as="geometry" />
        </mxCell>
        <mxCell id="idGQ35asmsZKRSU0V28K-50" value="" style="endArrow=none;html=1;rounded=0;entryX=0.5;entryY=1;entryDx=0;entryDy=0;entryPerimeter=0;" edge="1" parent="1" target="idGQ35asmsZKRSU0V28K-49">
          <mxGeometry width="50" height="50" relative="1" as="geometry">
            <mxPoint x="-700" y="360" as="sourcePoint" />
            <mxPoint x="-655" y="340" as="targetPoint" />
          </mxGeometry>
        </mxCell>
        <mxCell id="idGQ35asmsZKRSU0V28K-51" value="&lt;span style=&quot;font-size: 18px;&quot;&gt;DI&lt;/span&gt;" style="text;html=1;align=center;verticalAlign=middle;whiteSpace=wrap;rounded=0;" vertex="1" parent="1">
          <mxGeometry x="-722.5" y="310" width="45" height="10" as="geometry" />
        </mxCell>
        <mxCell id="idGQ35asmsZKRSU0V28K-52" value="" style="verticalLabelPosition=bottom;verticalAlign=top;html=1;shape=mxgraph.flowchart.on-page_reference;" vertex="1" parent="1">
          <mxGeometry x="-642.5" y="330" width="10" height="10" as="geometry" />
        </mxCell>
        <mxCell id="idGQ35asmsZKRSU0V28K-53" value="" style="endArrow=none;html=1;rounded=0;entryX=0.5;entryY=1;entryDx=0;entryDy=0;entryPerimeter=0;" edge="1" parent="1" target="idGQ35asmsZKRSU0V28K-52">
          <mxGeometry width="50" height="50" relative="1" as="geometry">
            <mxPoint x="-637.5" y="360" as="sourcePoint" />
            <mxPoint x="-592.5" y="340" as="targetPoint" />
          </mxGeometry>
        </mxCell>
        <mxCell id="idGQ35asmsZKRSU0V28K-54" value="&lt;span style=&quot;font-size: 18px;&quot;&gt;DF&lt;/span&gt;" style="text;html=1;align=center;verticalAlign=middle;whiteSpace=wrap;rounded=0;" vertex="1" parent="1">
          <mxGeometry x="-660" y="310" width="45" height="10" as="geometry" />
        </mxCell>
        <mxCell id="idGQ35asmsZKRSU0V28K-55" value="" style="endArrow=none;html=1;rounded=0;" edge="1" parent="1">
          <mxGeometry width="50" height="50" relative="1" as="geometry">
            <mxPoint x="-727.5" y="350" as="sourcePoint" />
            <mxPoint x="-672.5" y="350" as="targetPoint" />
          </mxGeometry>
        </mxCell>
        <mxCell id="idGQ35asmsZKRSU0V28K-56" value="" style="endArrow=none;html=1;rounded=0;" edge="1" parent="1" source="idGQ35asmsZKRSU0V28K-57">
          <mxGeometry width="50" height="50" relative="1" as="geometry">
            <mxPoint x="-730" y="390" as="sourcePoint" />
            <mxPoint x="-727" y="350" as="targetPoint" />
          </mxGeometry>
        </mxCell>
        <mxCell id="idGQ35asmsZKRSU0V28K-57" value="" style="verticalLabelPosition=bottom;verticalAlign=top;html=1;shape=mxgraph.flowchart.on-page_reference;fillColor=#000000;" vertex="1" parent="1">
          <mxGeometry x="-732.5" y="400" width="10" height="10" as="geometry" />
        </mxCell>
        <mxCell id="idGQ35asmsZKRSU0V28K-58" value="" style="endArrow=none;html=1;rounded=0;entryX=0;entryY=0.5;entryDx=0;entryDy=0;" edge="1" parent="1">
          <mxGeometry relative="1" as="geometry">
            <mxPoint x="-1140" y="119.6" as="sourcePoint" />
            <mxPoint x="-1005" y="119.6" as="targetPoint" />
          </mxGeometry>
        </mxCell>
        <mxCell id="idGQ35asmsZKRSU0V28K-59" value="" style="endArrow=none;html=1;rounded=0;" edge="1" parent="1">
          <mxGeometry relative="1" as="geometry">
            <mxPoint x="-1140" y="10" as="sourcePoint" />
            <mxPoint x="-360" y="10" as="targetPoint" />
          </mxGeometry>
        </mxCell>
        <mxCell id="idGQ35asmsZKRSU0V28K-60" value="" style="endArrow=none;html=1;rounded=0;" edge="1" parent="1">
          <mxGeometry relative="1" as="geometry">
            <mxPoint x="-1140" y="120" as="sourcePoint" />
            <mxPoint x="-1140" y="10" as="targetPoint" />
          </mxGeometry>
        </mxCell>
        <mxCell id="idGQ35asmsZKRSU0V28K-61" value="" style="endArrow=none;html=1;rounded=0;exitX=0.5;exitY=0;exitDx=0;exitDy=0;" edge="1" parent="1" source="idGQ35asmsZKRSU0V28K-62">
          <mxGeometry relative="1" as="geometry">
            <mxPoint x="-360" y="70" as="sourcePoint" />
            <mxPoint x="-360" y="10" as="targetPoint" />
          </mxGeometry>
        </mxCell>
        <mxCell id="idGQ35asmsZKRSU0V28K-62" value="&lt;span style=&quot;font-size: 18px;&quot;&gt;appartenenza&lt;/span&gt;" style="shape=rhombus;perimeter=rhombusPerimeter;whiteSpace=wrap;html=1;align=center;" vertex="1" parent="1">
          <mxGeometry x="-430" y="190" width="140" height="60" as="geometry" />
        </mxCell>
        <mxCell id="idGQ35asmsZKRSU0V28K-63" value="" style="endArrow=none;html=1;rounded=0;" edge="1" parent="1">
          <mxGeometry relative="1" as="geometry">
            <mxPoint x="-610" y="360" as="sourcePoint" />
            <mxPoint x="-610" y="280" as="targetPoint" />
          </mxGeometry>
        </mxCell>
        <mxCell id="idGQ35asmsZKRSU0V28K-64" value="" style="endArrow=none;html=1;rounded=0;" edge="1" parent="1">
          <mxGeometry relative="1" as="geometry">
            <mxPoint x="-610" y="280" as="sourcePoint" />
            <mxPoint x="-360" y="280" as="targetPoint" />
          </mxGeometry>
        </mxCell>
        <mxCell id="idGQ35asmsZKRSU0V28K-65" value="" style="endArrow=none;html=1;rounded=0;entryX=0.5;entryY=1;entryDx=0;entryDy=0;" edge="1" parent="1" target="idGQ35asmsZKRSU0V28K-62">
          <mxGeometry relative="1" as="geometry">
            <mxPoint x="-360" y="280" as="sourcePoint" />
            <mxPoint x="-470" y="510" as="targetPoint" />
          </mxGeometry>
        </mxCell>
        <mxCell id="idGQ35asmsZKRSU0V28K-66" value="&lt;font style=&quot;font-size: 18px;&quot;&gt;(1,N)&lt;/font&gt;" style="text;html=1;align=center;verticalAlign=middle;whiteSpace=wrap;rounded=0;" vertex="1" parent="1">
          <mxGeometry x="-405" y="250" width="40" height="20" as="geometry" />
        </mxCell>
        <mxCell id="idGQ35asmsZKRSU0V28K-67" value="&lt;font style=&quot;font-size: 18px;&quot;&gt;(0,1)&lt;/font&gt;" style="text;html=1;align=center;verticalAlign=middle;whiteSpace=wrap;rounded=0;" vertex="1" parent="1">
          <mxGeometry x="-350" y="160" width="40" height="20" as="geometry" />
        </mxCell>
        <mxCell id="idGQ35asmsZKRSU0V28K-68" value="&lt;font style=&quot;font-size: 18px;&quot;&gt;Dipendente&lt;/font&gt;" style="whiteSpace=wrap;html=1;align=center;" vertex="1" parent="1">
          <mxGeometry x="-160" y="60" width="110" height="50" as="geometry" />
        </mxCell>
        <mxCell id="idGQ35asmsZKRSU0V28K-69" value="" style="endArrow=none;html=1;rounded=0;entryX=0.5;entryY=1;entryDx=0;entryDy=0;entryPerimeter=0;" edge="1" parent="1" source="idGQ35asmsZKRSU0V28K-72">
          <mxGeometry width="50" height="50" relative="1" as="geometry">
            <mxPoint x="-107.5" y="60" as="sourcePoint" />
            <mxPoint x="-107.5" y="40" as="targetPoint" />
          </mxGeometry>
        </mxCell>
        <mxCell id="idGQ35asmsZKRSU0V28K-70" value="&lt;span style=&quot;font-size: 18px;&quot;&gt;CF&lt;/span&gt;" style="text;html=1;align=center;verticalAlign=middle;whiteSpace=wrap;rounded=0;" vertex="1" parent="1">
          <mxGeometry x="-130" y="10" width="45" height="10" as="geometry" />
        </mxCell>
        <mxCell id="idGQ35asmsZKRSU0V28K-71" value="" style="endArrow=none;html=1;rounded=0;entryX=0.5;entryY=1;entryDx=0;entryDy=0;entryPerimeter=0;" edge="1" parent="1" target="idGQ35asmsZKRSU0V28K-72">
          <mxGeometry width="50" height="50" relative="1" as="geometry">
            <mxPoint x="-107.5" y="60" as="sourcePoint" />
            <mxPoint x="-107.5" y="40" as="targetPoint" />
          </mxGeometry>
        </mxCell>
        <mxCell id="idGQ35asmsZKRSU0V28K-72" value="" style="verticalLabelPosition=bottom;verticalAlign=top;html=1;shape=mxgraph.flowchart.on-page_reference;fillColor=#000000;" vertex="1" parent="1">
          <mxGeometry x="-112.5" y="30" width="10" height="10" as="geometry" />
        </mxCell>
        <mxCell id="idGQ35asmsZKRSU0V28K-73" value="&lt;span style=&quot;font-size: 18px;&quot;&gt;Guida&lt;/span&gt;" style="whiteSpace=wrap;html=1;align=center;" vertex="1" parent="1">
          <mxGeometry x="-160" y="260" width="110" height="50" as="geometry" />
        </mxCell>
        <mxCell id="idGQ35asmsZKRSU0V28K-74" value="" style="verticalLabelPosition=bottom;verticalAlign=top;html=1;shape=mxgraph.flowchart.on-page_reference;" vertex="1" parent="1">
          <mxGeometry x="-85" y="330" width="10" height="10" as="geometry" />
        </mxCell>
        <mxCell id="idGQ35asmsZKRSU0V28K-75" value="" style="endArrow=none;html=1;rounded=0;entryX=0.5;entryY=0;entryDx=0;entryDy=0;entryPerimeter=0;" edge="1" parent="1" target="idGQ35asmsZKRSU0V28K-74">
          <mxGeometry width="50" height="50" relative="1" as="geometry">
            <mxPoint x="-80" y="310" as="sourcePoint" />
            <mxPoint x="-34" y="340" as="targetPoint" />
          </mxGeometry>
        </mxCell>
        <mxCell id="idGQ35asmsZKRSU0V28K-76" value="&lt;span style=&quot;font-size: 18px;&quot;&gt;Conteggio&lt;/span&gt;" style="text;html=1;align=center;verticalAlign=middle;whiteSpace=wrap;rounded=0;" vertex="1" parent="1">
          <mxGeometry x="-104" y="350" width="45" height="10" as="geometry" />
        </mxCell>
        <mxCell id="idGQ35asmsZKRSU0V28K-77" value="&lt;span style=&quot;font-size: 18px;&quot;&gt;Argomento&lt;/span&gt;" style="whiteSpace=wrap;html=1;align=center;" vertex="1" parent="1">
          <mxGeometry x="-490" y="470" width="110" height="50" as="geometry" />
        </mxCell>
        <mxCell id="idGQ35asmsZKRSU0V28K-78" value="" style="verticalLabelPosition=bottom;verticalAlign=top;html=1;shape=mxgraph.flowchart.on-page_reference;fillColor=#000000;" vertex="1" parent="1">
          <mxGeometry x="-455" y="440" width="10" height="10" as="geometry" />
        </mxCell>
        <mxCell id="idGQ35asmsZKRSU0V28K-79" value="" style="endArrow=none;html=1;rounded=0;entryX=0.5;entryY=1;entryDx=0;entryDy=0;entryPerimeter=0;" edge="1" parent="1" target="idGQ35asmsZKRSU0V28K-78">
          <mxGeometry width="50" height="50" relative="1" as="geometry">
            <mxPoint x="-450" y="470" as="sourcePoint" />
            <mxPoint x="-405" y="450" as="targetPoint" />
          </mxGeometry>
        </mxCell>
        <mxCell id="idGQ35asmsZKRSU0V28K-80" value="&lt;font style=&quot;font-size: 18px;&quot;&gt;Nome&lt;/font&gt;" style="text;html=1;align=center;verticalAlign=middle;whiteSpace=wrap;rounded=0;" vertex="1" parent="1">
          <mxGeometry x="-462.5" y="420" width="45" height="10" as="geometry" />
        </mxCell>
        <mxCell id="idGQ35asmsZKRSU0V28K-81" value="" style="endArrow=none;html=1;rounded=0;entryX=0.5;entryY=0;entryDx=0;entryDy=0;exitX=0.932;exitY=1;exitDx=0;exitDy=0;exitPerimeter=0;" edge="1" parent="1" source="idGQ35asmsZKRSU0V28K-43" target="idGQ35asmsZKRSU0V28K-83">
          <mxGeometry width="50" height="50" relative="1" as="geometry">
            <mxPoint x="-790" y="500" as="sourcePoint" />
            <mxPoint x="-700" y="500" as="targetPoint" />
          </mxGeometry>
        </mxCell>
        <mxCell id="idGQ35asmsZKRSU0V28K-82" value="" style="endArrow=none;html=1;rounded=0;exitX=1;exitY=0.5;exitDx=0;exitDy=0;" edge="1" parent="1" source="idGQ35asmsZKRSU0V28K-83">
          <mxGeometry width="50" height="50" relative="1" as="geometry">
            <mxPoint x="-580" y="499" as="sourcePoint" />
            <mxPoint x="-490" y="500" as="targetPoint" />
          </mxGeometry>
        </mxCell>
        <mxCell id="idGQ35asmsZKRSU0V28K-83" value="&lt;span style=&quot;font-size: 18px;&quot;&gt;trattazione&lt;/span&gt;" style="shape=rhombus;perimeter=rhombusPerimeter;whiteSpace=wrap;html=1;align=center;" vertex="1" parent="1">
          <mxGeometry x="-665" y="470" width="120" height="60" as="geometry" />
        </mxCell>
        <mxCell id="idGQ35asmsZKRSU0V28K-84" value="&lt;font style=&quot;font-size: 18px;&quot;&gt;(1,1)&lt;/font&gt;" style="text;html=1;align=center;verticalAlign=middle;whiteSpace=wrap;rounded=0;" vertex="1" parent="1">
          <mxGeometry x="-651.5" y="415" width="40" height="20" as="geometry" />
        </mxCell>
        <mxCell id="idGQ35asmsZKRSU0V28K-85" value="&lt;font style=&quot;font-size: 18px;&quot;&gt;(0,N)&lt;/font&gt;" style="text;html=1;align=center;verticalAlign=middle;whiteSpace=wrap;rounded=0;" vertex="1" parent="1">
          <mxGeometry x="-540" y="470" width="40" height="20" as="geometry" />
        </mxCell>
        <mxCell id="idGQ35asmsZKRSU0V28K-86" value="&lt;span style=&quot;font-size: 18px;&quot;&gt;conoscenza&lt;/span&gt;" style="shape=rhombus;perimeter=rhombusPerimeter;whiteSpace=wrap;html=1;align=center;" vertex="1" parent="1">
          <mxGeometry x="-340" y="360" width="120" height="60" as="geometry" />
        </mxCell>
        <mxCell id="idGQ35asmsZKRSU0V28K-87" value="" style="endArrow=none;html=1;rounded=0;exitX=0.5;exitY=0;exitDx=0;exitDy=0;" edge="1" parent="1" source="idGQ35asmsZKRSU0V28K-86">
          <mxGeometry width="50" height="50" relative="1" as="geometry">
            <mxPoint x="-331.5" y="300" as="sourcePoint" />
            <mxPoint x="-279.5" y="280" as="targetPoint" />
          </mxGeometry>
        </mxCell>
        <mxCell id="idGQ35asmsZKRSU0V28K-88" value="&lt;font style=&quot;font-size: 18px;&quot;&gt;(1,N)&lt;/font&gt;" style="text;html=1;align=center;verticalAlign=middle;whiteSpace=wrap;rounded=0;" vertex="1" parent="1">
          <mxGeometry x="-274" y="320" width="40" height="20" as="geometry" />
        </mxCell>
        <mxCell id="idGQ35asmsZKRSU0V28K-89" value="" style="endArrow=none;html=1;rounded=0;exitX=0.5;exitY=0;exitDx=0;exitDy=0;entryX=0.5;entryY=1;entryDx=0;entryDy=0;" edge="1" parent="1" target="idGQ35asmsZKRSU0V28K-86">
          <mxGeometry width="50" height="50" relative="1" as="geometry">
            <mxPoint x="-279.5" y="500" as="sourcePoint" />
            <mxPoint x="-279.5" y="420" as="targetPoint" />
          </mxGeometry>
        </mxCell>
        <mxCell id="idGQ35asmsZKRSU0V28K-90" value="&lt;font style=&quot;font-size: 18px;&quot;&gt;(0,N)&lt;/font&gt;" style="text;html=1;align=center;verticalAlign=middle;whiteSpace=wrap;rounded=0;" vertex="1" parent="1">
          <mxGeometry x="-274" y="460" width="40" height="20" as="geometry" />
        </mxCell>
        <mxCell id="idGQ35asmsZKRSU0V28K-91" value="" style="endArrow=none;html=1;rounded=0;" edge="1" parent="1">
          <mxGeometry width="50" height="50" relative="1" as="geometry">
            <mxPoint x="-280" y="280" as="sourcePoint" />
            <mxPoint x="-160" y="280" as="targetPoint" />
          </mxGeometry>
        </mxCell>
        <mxCell id="idGQ35asmsZKRSU0V28K-92" value="" style="endArrow=none;html=1;rounded=0;" edge="1" parent="1">
          <mxGeometry width="50" height="50" relative="1" as="geometry">
            <mxPoint x="-380" y="500" as="sourcePoint" />
            <mxPoint x="-280" y="500" as="targetPoint" />
          </mxGeometry>
        </mxCell>
        <mxCell id="idGQ35asmsZKRSU0V28K-94" value="&lt;span style=&quot;font-size: 18px;&quot;&gt;Visita Guidata&lt;/span&gt;" style="whiteSpace=wrap;html=1;align=center;" vertex="1" parent="1">
          <mxGeometry x="-642.5" y="670" width="149" height="50" as="geometry" />
        </mxCell>
        <mxCell id="idGQ35asmsZKRSU0V28K-95" value="" style="verticalLabelPosition=bottom;verticalAlign=top;html=1;shape=mxgraph.flowchart.on-page_reference;" vertex="1" parent="1">
          <mxGeometry x="-635" y="640" width="10" height="10" as="geometry" />
        </mxCell>
        <mxCell id="idGQ35asmsZKRSU0V28K-96" value="" style="endArrow=none;html=1;rounded=0;entryX=0.5;entryY=1;entryDx=0;entryDy=0;entryPerimeter=0;" edge="1" parent="1" target="idGQ35asmsZKRSU0V28K-95">
          <mxGeometry width="50" height="50" relative="1" as="geometry">
            <mxPoint x="-630" y="670" as="sourcePoint" />
            <mxPoint x="-585" y="650" as="targetPoint" />
          </mxGeometry>
        </mxCell>
        <mxCell id="idGQ35asmsZKRSU0V28K-97" value="&lt;font style=&quot;font-size: 18px;&quot;&gt;Data&lt;/font&gt;" style="text;html=1;align=center;verticalAlign=middle;whiteSpace=wrap;rounded=0;" vertex="1" parent="1">
          <mxGeometry x="-652.5" y="620" width="45" height="10" as="geometry" />
        </mxCell>
        <mxCell id="idGQ35asmsZKRSU0V28K-98" value="" style="verticalLabelPosition=bottom;verticalAlign=top;html=1;shape=mxgraph.flowchart.on-page_reference;" vertex="1" parent="1">
          <mxGeometry x="-585" y="640" width="10" height="10" as="geometry" />
        </mxCell>
        <mxCell id="idGQ35asmsZKRSU0V28K-99" value="" style="endArrow=none;html=1;rounded=0;entryX=0.5;entryY=1;entryDx=0;entryDy=0;entryPerimeter=0;" edge="1" parent="1" target="idGQ35asmsZKRSU0V28K-98">
          <mxGeometry width="50" height="50" relative="1" as="geometry">
            <mxPoint x="-580" y="670" as="sourcePoint" />
            <mxPoint x="-535" y="650" as="targetPoint" />
          </mxGeometry>
        </mxCell>
        <mxCell id="idGQ35asmsZKRSU0V28K-100" value="&lt;span style=&quot;font-size: 18px;&quot;&gt;Turno&lt;/span&gt;" style="text;html=1;align=center;verticalAlign=middle;whiteSpace=wrap;rounded=0;" vertex="1" parent="1">
          <mxGeometry x="-602.5" y="620" width="45" height="10" as="geometry" />
        </mxCell>
        <mxCell id="idGQ35asmsZKRSU0V28K-101" value="" style="verticalLabelPosition=bottom;verticalAlign=top;html=1;shape=mxgraph.flowchart.on-page_reference;" vertex="1" parent="1">
          <mxGeometry x="-627.5" y="740" width="10" height="10" as="geometry" />
        </mxCell>
        <mxCell id="idGQ35asmsZKRSU0V28K-102" value="" style="endArrow=none;html=1;rounded=0;entryX=0.5;entryY=0;entryDx=0;entryDy=0;entryPerimeter=0;" edge="1" parent="1" target="idGQ35asmsZKRSU0V28K-101">
          <mxGeometry width="50" height="50" relative="1" as="geometry">
            <mxPoint x="-622.5" y="720" as="sourcePoint" />
            <mxPoint x="-577.5" y="750" as="targetPoint" />
          </mxGeometry>
        </mxCell>
        <mxCell id="idGQ35asmsZKRSU0V28K-103" value="&lt;span style=&quot;font-size: 18px;&quot;&gt;Partecipanti&lt;/span&gt;" style="text;html=1;align=center;verticalAlign=middle;whiteSpace=wrap;rounded=0;" vertex="1" parent="1">
          <mxGeometry x="-670" y="760" width="107.5" height="10" as="geometry" />
        </mxCell>
        <mxCell id="idGQ35asmsZKRSU0V28K-104" value="&lt;font size=&quot;3&quot;&gt;gestione&lt;/font&gt;" style="shape=rhombus;perimeter=rhombusPerimeter;whiteSpace=wrap;html=1;align=center;" vertex="1" parent="1">
          <mxGeometry x="-205" y="670" width="120" height="60" as="geometry" />
        </mxCell>
        <mxCell id="idGQ35asmsZKRSU0V28K-105" value="" style="endArrow=none;html=1;rounded=0;exitX=0.5;exitY=0;exitDx=0;exitDy=0;entryX=0.127;entryY=1.004;entryDx=0;entryDy=0;entryPerimeter=0;" edge="1" parent="1" source="idGQ35asmsZKRSU0V28K-104" target="idGQ35asmsZKRSU0V28K-73">
          <mxGeometry width="50" height="50" relative="1" as="geometry">
            <mxPoint x="-196.5" y="570" as="sourcePoint" />
            <mxPoint x="-144.5" y="550" as="targetPoint" />
          </mxGeometry>
        </mxCell>
        <mxCell id="idGQ35asmsZKRSU0V28K-106" value="&lt;span style=&quot;font-size: 18px;&quot;&gt;(1,N)&lt;/span&gt;" style="text;html=1;align=center;verticalAlign=middle;whiteSpace=wrap;rounded=0;" vertex="1" parent="1">
          <mxGeometry x="-142.5" y="580" width="40" height="20" as="geometry" />
        </mxCell>
        <mxCell id="idGQ35asmsZKRSU0V28K-107" value="" style="endArrow=none;html=1;rounded=0;entryX=0;entryY=0.5;entryDx=0;entryDy=0;exitX=0.998;exitY=0.588;exitDx=0;exitDy=0;exitPerimeter=0;" edge="1" parent="1" source="idGQ35asmsZKRSU0V28K-94" target="idGQ35asmsZKRSU0V28K-104">
          <mxGeometry width="50" height="50" relative="1" as="geometry">
            <mxPoint x="-440" y="690" as="sourcePoint" />
            <mxPoint x="-205" y="640" as="targetPoint" />
          </mxGeometry>
        </mxCell>
        <mxCell id="idGQ35asmsZKRSU0V28K-108" value="&lt;font style=&quot;font-size: 18px;&quot;&gt;(1,1)&lt;/font&gt;" style="text;html=1;align=center;verticalAlign=middle;whiteSpace=wrap;rounded=0;" vertex="1" parent="1">
          <mxGeometry x="-360" y="670" width="40" height="20" as="geometry" />
        </mxCell>
        <mxCell id="idGQ35asmsZKRSU0V28K-109" value="&lt;font style=&quot;font-size: 18px;&quot;&gt;creazione&lt;/font&gt;" style="shape=rhombus;perimeter=rhombusPerimeter;whiteSpace=wrap;html=1;align=center;" vertex="1" parent="1">
          <mxGeometry x="-907.5" y="670" width="120" height="60" as="geometry" />
        </mxCell>
        <mxCell id="idGQ35asmsZKRSU0V28K-110" value="" style="endArrow=none;html=1;rounded=0;exitX=0.5;exitY=0;exitDx=0;exitDy=0;" edge="1" parent="1" source="idGQ35asmsZKRSU0V28K-109">
          <mxGeometry width="50" height="50" relative="1" as="geometry">
            <mxPoint x="-899" y="610" as="sourcePoint" />
            <mxPoint x="-847" y="450" as="targetPoint" />
          </mxGeometry>
        </mxCell>
        <mxCell id="idGQ35asmsZKRSU0V28K-111" value="&lt;font style=&quot;font-size: 18px;&quot;&gt;(0,N)&lt;/font&gt;" style="text;html=1;align=center;verticalAlign=middle;whiteSpace=wrap;rounded=0;" vertex="1" parent="1">
          <mxGeometry x="-845" y="540" width="40" height="20" as="geometry" />
        </mxCell>
        <mxCell id="idGQ35asmsZKRSU0V28K-112" value="" style="endArrow=none;html=1;rounded=0;exitX=0.001;exitY=0.58;exitDx=0;exitDy=0;entryX=1;entryY=0.5;entryDx=0;entryDy=0;exitPerimeter=0;" edge="1" parent="1" source="idGQ35asmsZKRSU0V28K-94" target="idGQ35asmsZKRSU0V28K-109">
          <mxGeometry width="50" height="50" relative="1" as="geometry">
            <mxPoint x="-769.5" y="780" as="sourcePoint" />
            <mxPoint x="-770" y="700" as="targetPoint" />
          </mxGeometry>
        </mxCell>
        <mxCell id="idGQ35asmsZKRSU0V28K-113" value="&lt;font style=&quot;font-size: 18px;&quot;&gt;(1,1)&lt;/font&gt;" style="text;html=1;align=center;verticalAlign=middle;whiteSpace=wrap;rounded=0;" vertex="1" parent="1">
          <mxGeometry x="-765" y="670" width="40" height="20" as="geometry" />
        </mxCell>
        <mxCell id="idGQ35asmsZKRSU0V28K-114" value="" style="endArrow=none;html=1;rounded=0;" edge="1" parent="1">
          <mxGeometry width="50" height="50" relative="1" as="geometry">
            <mxPoint x="-847.5" y="450" as="sourcePoint" />
            <mxPoint x="-690" y="450" as="targetPoint" />
          </mxGeometry>
        </mxCell>
        <mxCell id="idGQ35asmsZKRSU0V28K-115" value="" style="endArrow=none;html=1;rounded=0;entryX=0.155;entryY=1.01;entryDx=0;entryDy=0;entryPerimeter=0;" edge="1" parent="1" target="idGQ35asmsZKRSU0V28K-43">
          <mxGeometry width="50" height="50" relative="1" as="geometry">
            <mxPoint x="-690" y="450" as="sourcePoint" />
            <mxPoint x="-691.5" y="410" as="targetPoint" />
          </mxGeometry>
        </mxCell>
        <mxCell id="idGQ35asmsZKRSU0V28K-116" value="" style="endArrow=none;html=1;rounded=0;" edge="1" parent="1" source="idGQ35asmsZKRSU0V28K-117">
          <mxGeometry width="50" height="50" relative="1" as="geometry">
            <mxPoint x="-667.5" y="705" as="sourcePoint" />
            <mxPoint x="-665" y="660" as="targetPoint" />
          </mxGeometry>
        </mxCell>
        <mxCell id="idGQ35asmsZKRSU0V28K-117" value="" style="verticalLabelPosition=bottom;verticalAlign=top;html=1;shape=mxgraph.flowchart.on-page_reference;fillColor=#000000;" vertex="1" parent="1">
          <mxGeometry x="-670" y="715" width="10" height="10" as="geometry" />
        </mxCell>
        <mxCell id="idGQ35asmsZKRSU0V28K-118" value="" style="endArrow=none;html=1;rounded=0;" edge="1" parent="1">
          <mxGeometry width="50" height="50" relative="1" as="geometry">
            <mxPoint x="-665" y="660" as="sourcePoint" />
            <mxPoint x="-480" y="660" as="targetPoint" />
          </mxGeometry>
        </mxCell>
        <mxCell id="idGQ35asmsZKRSU0V28K-119" value="" style="endArrow=none;html=1;rounded=0;" edge="1" parent="1">
          <mxGeometry width="50" height="50" relative="1" as="geometry">
            <mxPoint x="-480" y="715" as="sourcePoint" />
            <mxPoint x="-480" y="660" as="targetPoint" />
          </mxGeometry>
        </mxCell>
        <mxCell id="idGQ35asmsZKRSU0V28K-120" value="&lt;font style=&quot;font-size: 18px;&quot;&gt;riferimento&lt;/font&gt;" style="shape=rhombus;perimeter=rhombusPerimeter;whiteSpace=wrap;html=1;align=center;" vertex="1" parent="1">
          <mxGeometry x="-580" y="850" width="120" height="60" as="geometry" />
        </mxCell>
        <mxCell id="idGQ35asmsZKRSU0V28K-121" value="" style="endArrow=none;html=1;rounded=0;exitX=0.5;exitY=0;exitDx=0;exitDy=0;" edge="1" parent="1" source="idGQ35asmsZKRSU0V28K-120">
          <mxGeometry width="50" height="50" relative="1" as="geometry">
            <mxPoint x="-571.5" y="740" as="sourcePoint" />
            <mxPoint x="-519.5" y="720" as="targetPoint" />
          </mxGeometry>
        </mxCell>
        <mxCell id="idGQ35asmsZKRSU0V28K-122" value="&lt;font style=&quot;font-size: 18px;&quot;&gt;(0,N)&lt;/font&gt;" style="text;html=1;align=center;verticalAlign=middle;whiteSpace=wrap;rounded=0;" vertex="1" parent="1">
          <mxGeometry x="-514" y="760" width="40" height="20" as="geometry" />
        </mxCell>
        <mxCell id="idGQ35asmsZKRSU0V28K-123" value="" style="endArrow=none;html=1;rounded=0;entryX=0.5;entryY=1;entryDx=0;entryDy=0;" edge="1" parent="1" target="idGQ35asmsZKRSU0V28K-120">
          <mxGeometry width="50" height="50" relative="1" as="geometry">
            <mxPoint x="-520" y="1180" as="sourcePoint" />
            <mxPoint x="-519.5" y="860" as="targetPoint" />
          </mxGeometry>
        </mxCell>
        <mxCell id="idGQ35asmsZKRSU0V28K-124" value="&lt;font style=&quot;font-size: 18px;&quot;&gt;(1,1)&lt;/font&gt;" style="text;html=1;align=center;verticalAlign=middle;whiteSpace=wrap;rounded=0;" vertex="1" parent="1">
          <mxGeometry x="-515" y="950" width="40" height="20" as="geometry" />
        </mxCell>
        <mxCell id="idGQ35asmsZKRSU0V28K-125" value="&lt;span style=&quot;font-size: 18px;&quot;&gt;I. Guidato&lt;/span&gt;" style="whiteSpace=wrap;html=1;align=center;" vertex="1" parent="1">
          <mxGeometry x="-735" y="1150" width="110" height="50" as="geometry" />
        </mxCell>
        <mxCell id="idGQ35asmsZKRSU0V28K-126" value="&lt;span style=&quot;font-size: 18px;&quot;&gt;I. Libero&lt;/span&gt;" style="whiteSpace=wrap;html=1;align=center;" vertex="1" parent="1">
          <mxGeometry x="-965.5" y="1150" width="110" height="50" as="geometry" />
        </mxCell>
        <mxCell id="idGQ35asmsZKRSU0V28K-127" value="&lt;span style=&quot;font-size: 18px;&quot;&gt;Biglietto&lt;/span&gt;" style="whiteSpace=wrap;html=1;align=center;" vertex="1" parent="1">
          <mxGeometry x="-868.5" y="870" width="110" height="50" as="geometry" />
        </mxCell>
        <mxCell id="idGQ35asmsZKRSU0V28K-128" value="" style="endArrow=none;html=1;rounded=0;entryX=0.5;entryY=1;entryDx=0;entryDy=0;entryPerimeter=0;" edge="1" parent="1" source="idGQ35asmsZKRSU0V28K-137">
          <mxGeometry width="50" height="50" relative="1" as="geometry">
            <mxPoint x="-862.5" y="870" as="sourcePoint" />
            <mxPoint x="-862.5" y="850" as="targetPoint" />
          </mxGeometry>
        </mxCell>
        <mxCell id="idGQ35asmsZKRSU0V28K-129" value="&lt;span style=&quot;font-size: 18px;&quot;&gt;ID&lt;/span&gt;" style="text;html=1;align=center;verticalAlign=middle;whiteSpace=wrap;rounded=0;" vertex="1" parent="1">
          <mxGeometry x="-885" y="820" width="45" height="10" as="geometry" />
        </mxCell>
        <mxCell id="idGQ35asmsZKRSU0V28K-130" value="" style="verticalLabelPosition=bottom;verticalAlign=top;html=1;shape=mxgraph.flowchart.on-page_reference;" vertex="1" parent="1">
          <mxGeometry x="-830" y="840" width="10" height="10" as="geometry" />
        </mxCell>
        <mxCell id="idGQ35asmsZKRSU0V28K-131" value="" style="endArrow=none;html=1;rounded=0;entryX=0.5;entryY=1;entryDx=0;entryDy=0;entryPerimeter=0;" edge="1" parent="1" target="idGQ35asmsZKRSU0V28K-130">
          <mxGeometry width="50" height="50" relative="1" as="geometry">
            <mxPoint x="-825" y="870" as="sourcePoint" />
            <mxPoint x="-780" y="850" as="targetPoint" />
          </mxGeometry>
        </mxCell>
        <mxCell id="idGQ35asmsZKRSU0V28K-132" value="&lt;span style=&quot;font-size: 18px;&quot;&gt;Email&lt;/span&gt;" style="text;html=1;align=center;verticalAlign=middle;whiteSpace=wrap;rounded=0;" vertex="1" parent="1">
          <mxGeometry x="-845" y="820" width="45" height="10" as="geometry" />
        </mxCell>
        <mxCell id="idGQ35asmsZKRSU0V28K-133" value="" style="verticalLabelPosition=bottom;verticalAlign=top;html=1;shape=mxgraph.flowchart.on-page_reference;" vertex="1" parent="1">
          <mxGeometry x="-768.5" y="840" width="10" height="10" as="geometry" />
        </mxCell>
        <mxCell id="idGQ35asmsZKRSU0V28K-134" value="" style="endArrow=none;html=1;rounded=0;entryX=0.5;entryY=1;entryDx=0;entryDy=0;entryPerimeter=0;" edge="1" parent="1" target="idGQ35asmsZKRSU0V28K-133">
          <mxGeometry width="50" height="50" relative="1" as="geometry">
            <mxPoint x="-763.5" y="870" as="sourcePoint" />
            <mxPoint x="-718.5" y="850" as="targetPoint" />
          </mxGeometry>
        </mxCell>
        <mxCell id="idGQ35asmsZKRSU0V28K-135" value="&lt;font style=&quot;font-size: 18px;&quot;&gt;Data Acq.&lt;/font&gt;" style="text;html=1;align=center;verticalAlign=middle;whiteSpace=wrap;rounded=0;" vertex="1" parent="1">
          <mxGeometry x="-800" y="820" width="96.5" height="10" as="geometry" />
        </mxCell>
        <mxCell id="idGQ35asmsZKRSU0V28K-136" value="" style="endArrow=none;html=1;rounded=0;entryX=0.5;entryY=1;entryDx=0;entryDy=0;entryPerimeter=0;" edge="1" parent="1" target="idGQ35asmsZKRSU0V28K-137">
          <mxGeometry width="50" height="50" relative="1" as="geometry">
            <mxPoint x="-862.5" y="870" as="sourcePoint" />
            <mxPoint x="-862.5" y="850" as="targetPoint" />
          </mxGeometry>
        </mxCell>
        <mxCell id="idGQ35asmsZKRSU0V28K-137" value="" style="verticalLabelPosition=bottom;verticalAlign=top;html=1;shape=mxgraph.flowchart.on-page_reference;fillColor=#000000;" vertex="1" parent="1">
          <mxGeometry x="-867.5" y="840" width="10" height="10" as="geometry" />
        </mxCell>
        <mxCell id="idGQ35asmsZKRSU0V28K-138" value="" style="endArrow=none;html=1;rounded=0;exitX=1.001;exitY=0.606;exitDx=0;exitDy=0;exitPerimeter=0;" edge="1" parent="1">
          <mxGeometry width="50" height="50" relative="1" as="geometry">
            <mxPoint x="-625.0000000000001" y="1180.3" as="sourcePoint" />
            <mxPoint x="-520.11" y="1180" as="targetPoint" />
          </mxGeometry>
        </mxCell>
        <mxCell id="idGQ35asmsZKRSU0V28K-141" value="" style="verticalLabelPosition=bottom;verticalAlign=top;html=1;shape=mxgraph.flowchart.on-page_reference;" vertex="1" parent="1">
          <mxGeometry x="-922" y="1220" width="10" height="10" as="geometry" />
        </mxCell>
        <mxCell id="idGQ35asmsZKRSU0V28K-142" value="" style="endArrow=none;html=1;rounded=0;entryX=0.5;entryY=1;entryDx=0;entryDy=0;entryPerimeter=0;" edge="1" parent="1">
          <mxGeometry width="50" height="50" relative="1" as="geometry">
            <mxPoint x="-917.12" y="1220" as="sourcePoint" />
            <mxPoint x="-917.12" y="1200" as="targetPoint" />
          </mxGeometry>
        </mxCell>
        <mxCell id="idGQ35asmsZKRSU0V28K-143" value="&lt;span style=&quot;font-size: 18px;&quot;&gt;Data val.&lt;/span&gt;" style="text;html=1;align=center;verticalAlign=middle;whiteSpace=wrap;rounded=0;" vertex="1" parent="1">
          <mxGeometry x="-957" y="1240" width="85" height="10" as="geometry" />
        </mxCell>
        <mxCell id="idGQ35asmsZKRSU0V28K-144" value="" style="verticalLabelPosition=bottom;verticalAlign=top;html=1;shape=mxgraph.flowchart.on-page_reference;" vertex="1" parent="1">
          <mxGeometry x="-980" y="160" width="10" height="10" as="geometry" />
        </mxCell>
        <mxCell id="idGQ35asmsZKRSU0V28K-145" value="" style="endArrow=none;html=1;rounded=0;entryX=0.5;entryY=1;entryDx=0;entryDy=0;entryPerimeter=0;" edge="1" parent="1">
          <mxGeometry width="50" height="50" relative="1" as="geometry">
            <mxPoint x="-975.14" y="160" as="sourcePoint" />
            <mxPoint x="-975.14" y="140" as="targetPoint" />
          </mxGeometry>
        </mxCell>
        <mxCell id="idGQ35asmsZKRSU0V28K-146" value="&lt;font style=&quot;font-size: 18px;&quot;&gt;Tipologia&lt;/font&gt;" style="text;html=1;align=center;verticalAlign=middle;whiteSpace=wrap;rounded=0;" vertex="1" parent="1">
          <mxGeometry x="-997.5" y="180" width="45" height="10" as="geometry" />
        </mxCell>
        <mxCell id="idGQ35asmsZKRSU0V28K-148" value="&lt;span style=&quot;font-size: 18px;&quot;&gt;categoria&lt;/span&gt;" style="shape=rhombus;perimeter=rhombusPerimeter;whiteSpace=wrap;html=1;align=center;" vertex="1" parent="1">
          <mxGeometry x="-165" y="150" width="120" height="60" as="geometry" />
        </mxCell>
        <mxCell id="idGQ35asmsZKRSU0V28K-149" value="" style="endArrow=none;html=1;rounded=0;exitX=0.5;exitY=0;exitDx=0;exitDy=0;entryX=0.5;entryY=1;entryDx=0;entryDy=0;" edge="1" parent="1" source="idGQ35asmsZKRSU0V28K-148" target="idGQ35asmsZKRSU0V28K-68">
          <mxGeometry width="50" height="50" relative="1" as="geometry">
            <mxPoint x="-156.5" y="80" as="sourcePoint" />
            <mxPoint x="-104" y="100" as="targetPoint" />
          </mxGeometry>
        </mxCell>
        <mxCell id="idGQ35asmsZKRSU0V28K-150" value="&lt;font style=&quot;font-size: 18px;&quot;&gt;(0,1)&lt;/font&gt;" style="text;html=1;align=center;verticalAlign=middle;whiteSpace=wrap;rounded=0;" vertex="1" parent="1">
          <mxGeometry x="-99" y="120" width="40" height="20" as="geometry" />
        </mxCell>
        <mxCell id="idGQ35asmsZKRSU0V28K-151" value="" style="endArrow=none;html=1;rounded=0;entryX=0.5;entryY=1;entryDx=0;entryDy=0;" edge="1" parent="1" target="idGQ35asmsZKRSU0V28K-148">
          <mxGeometry width="50" height="50" relative="1" as="geometry">
            <mxPoint x="-105" y="260" as="sourcePoint" />
            <mxPoint x="-104.5" y="200" as="targetPoint" />
          </mxGeometry>
        </mxCell>
        <mxCell id="idGQ35asmsZKRSU0V28K-152" value="&lt;font style=&quot;font-size: 18px;&quot;&gt;(1,1)&lt;/font&gt;" style="text;html=1;align=center;verticalAlign=middle;whiteSpace=wrap;rounded=0;" vertex="1" parent="1">
          <mxGeometry x="-100" y="210" width="40" height="20" as="geometry" />
        </mxCell>
        <mxCell id="idGQ35asmsZKRSU0V28K-153" value="" style="endArrow=none;html=1;rounded=0;" edge="1" parent="1">
          <mxGeometry width="50" height="50" relative="1" as="geometry">
            <mxPoint x="-90" y="245" as="sourcePoint" />
            <mxPoint x="-117.5" y="244.8" as="targetPoint" />
          </mxGeometry>
        </mxCell>
        <mxCell id="idGQ35asmsZKRSU0V28K-154" value="" style="verticalLabelPosition=bottom;verticalAlign=top;html=1;shape=mxgraph.flowchart.on-page_reference;fillColor=#000000;" vertex="1" parent="1">
          <mxGeometry x="-127.5" y="240" width="10" height="10" as="geometry" />
        </mxCell>
        <mxCell id="idGQ35asmsZKRSU0V28K-157" value="&lt;span style=&quot;font-size: 18px;&quot;&gt;categoria&lt;/span&gt;" style="shape=rhombus;perimeter=rhombusPerimeter;whiteSpace=wrap;html=1;align=center;" vertex="1" parent="1">
          <mxGeometry x="-977" y="1040" width="120" height="60" as="geometry" />
        </mxCell>
        <mxCell id="idGQ35asmsZKRSU0V28K-158" value="" style="endArrow=none;html=1;rounded=0;exitX=0.5;exitY=0;exitDx=0;exitDy=0;" edge="1" parent="1" source="idGQ35asmsZKRSU0V28K-157">
          <mxGeometry width="50" height="50" relative="1" as="geometry">
            <mxPoint x="-968.5" y="950" as="sourcePoint" />
            <mxPoint x="-917" y="970" as="targetPoint" />
          </mxGeometry>
        </mxCell>
        <mxCell id="idGQ35asmsZKRSU0V28K-159" value="&lt;font style=&quot;font-size: 18px;&quot;&gt;(1,1)&lt;/font&gt;" style="text;html=1;align=center;verticalAlign=middle;whiteSpace=wrap;rounded=0;" vertex="1" parent="1">
          <mxGeometry x="-911" y="990" width="40" height="20" as="geometry" />
        </mxCell>
        <mxCell id="idGQ35asmsZKRSU0V28K-160" value="" style="endArrow=none;html=1;rounded=0;exitX=0.5;exitY=0;exitDx=0;exitDy=0;entryX=0.5;entryY=1;entryDx=0;entryDy=0;" edge="1" parent="1" target="idGQ35asmsZKRSU0V28K-157">
          <mxGeometry width="50" height="50" relative="1" as="geometry">
            <mxPoint x="-916.5" y="1150" as="sourcePoint" />
            <mxPoint x="-916.5" y="1070" as="targetPoint" />
          </mxGeometry>
        </mxCell>
        <mxCell id="idGQ35asmsZKRSU0V28K-161" value="&lt;font style=&quot;font-size: 18px;&quot;&gt;(0,1)&lt;/font&gt;" style="text;html=1;align=center;verticalAlign=middle;whiteSpace=wrap;rounded=0;" vertex="1" parent="1">
          <mxGeometry x="-911" y="1110" width="40" height="20" as="geometry" />
        </mxCell>
        <mxCell id="idGQ35asmsZKRSU0V28K-162" value="&lt;span style=&quot;font-size: 18px;&quot;&gt;categoria&lt;/span&gt;" style="shape=rhombus;perimeter=rhombusPerimeter;whiteSpace=wrap;html=1;align=center;" vertex="1" parent="1">
          <mxGeometry x="-740" y="1040" width="120" height="60" as="geometry" />
        </mxCell>
        <mxCell id="idGQ35asmsZKRSU0V28K-163" value="" style="endArrow=none;html=1;rounded=0;exitX=0.5;exitY=0;exitDx=0;exitDy=0;" edge="1" parent="1" source="idGQ35asmsZKRSU0V28K-162">
          <mxGeometry width="50" height="50" relative="1" as="geometry">
            <mxPoint x="-731.5" y="950" as="sourcePoint" />
            <mxPoint x="-680" y="970" as="targetPoint" />
          </mxGeometry>
        </mxCell>
        <mxCell id="idGQ35asmsZKRSU0V28K-164" value="&lt;font style=&quot;font-size: 18px;&quot;&gt;(1,1)&lt;/font&gt;" style="text;html=1;align=center;verticalAlign=middle;whiteSpace=wrap;rounded=0;" vertex="1" parent="1">
          <mxGeometry x="-672.5" y="990" width="40" height="20" as="geometry" />
        </mxCell>
        <mxCell id="idGQ35asmsZKRSU0V28K-165" value="" style="endArrow=none;html=1;rounded=0;exitX=0.5;exitY=0;exitDx=0;exitDy=0;entryX=0.5;entryY=1;entryDx=0;entryDy=0;" edge="1" parent="1" target="idGQ35asmsZKRSU0V28K-162">
          <mxGeometry width="50" height="50" relative="1" as="geometry">
            <mxPoint x="-679.5" y="1150" as="sourcePoint" />
            <mxPoint x="-679.5" y="1070" as="targetPoint" />
          </mxGeometry>
        </mxCell>
        <mxCell id="idGQ35asmsZKRSU0V28K-166" value="&lt;font style=&quot;font-size: 18px;&quot;&gt;(0,1)&lt;/font&gt;" style="text;html=1;align=center;verticalAlign=middle;whiteSpace=wrap;rounded=0;" vertex="1" parent="1">
          <mxGeometry x="-674" y="1110" width="40" height="20" as="geometry" />
        </mxCell>
        <mxCell id="idGQ35asmsZKRSU0V28K-167" value="" style="endArrow=none;html=1;rounded=0;" edge="1" parent="1">
          <mxGeometry width="50" height="50" relative="1" as="geometry">
            <mxPoint x="-917.5" y="970" as="sourcePoint" />
            <mxPoint x="-840" y="970" as="targetPoint" />
          </mxGeometry>
        </mxCell>
        <mxCell id="idGQ35asmsZKRSU0V28K-168" value="" style="endArrow=none;html=1;rounded=0;" edge="1" parent="1">
          <mxGeometry width="50" height="50" relative="1" as="geometry">
            <mxPoint x="-780" y="970" as="sourcePoint" />
            <mxPoint x="-679.25" y="970" as="targetPoint" />
          </mxGeometry>
        </mxCell>
        <mxCell id="idGQ35asmsZKRSU0V28K-169" value="" style="endArrow=none;html=1;rounded=0;" edge="1" parent="1">
          <mxGeometry width="50" height="50" relative="1" as="geometry">
            <mxPoint x="-780" y="970" as="sourcePoint" />
            <mxPoint x="-780" y="920" as="targetPoint" />
          </mxGeometry>
        </mxCell>
        <mxCell id="idGQ35asmsZKRSU0V28K-170" value="" style="endArrow=none;html=1;rounded=0;" edge="1" parent="1">
          <mxGeometry width="50" height="50" relative="1" as="geometry">
            <mxPoint x="-840" y="970" as="sourcePoint" />
            <mxPoint x="-840" y="920" as="targetPoint" />
          </mxGeometry>
        </mxCell>
      </root>
    </mxGraphModel>
  </diagram>
</mxfile>
